<svg width="48" height="37" viewBox="0 0 48 37" fill="none" xmlns="http://www.w3.org/2000/svg">
    <path
        d="M44.01 21.775L47.9494 6.74376C48.2339 5.65847 47.2826 4.625 45.9992 4.625H13.2673L12.5035 1.38678C12.3132 0.579643 11.4942 0 10.5441 0H2C0.895417 0 0 0.776494 0 1.73438V2.89062C0 3.84851 0.895417 4.625 2 4.625H7.82359L13.6776 29.4435C12.2771 30.142 11.3333 31.4516 11.3333 32.9531C11.3333 35.1882 13.4227 37 16 37C18.5773 37 20.6667 35.1882 20.6667 32.9531C20.6667 31.8204 20.1294 30.7971 19.2647 30.0625H36.7353C35.8706 30.7971 35.3333 31.8204 35.3333 32.9531C35.3333 35.1882 37.4227 37 40 37C42.5773 37 44.6667 35.1882 44.6667 32.9531C44.6667 31.3509 43.5927 29.9662 42.0351 29.3106L42.4948 27.5563C42.7793 26.471 41.828 25.4375 40.5446 25.4375H18.1764L17.631 23.125H42.0598C42.9936 23.125 43.8031 22.5647 44.01 21.775Z"
        fill="#D4A413" />
</svg>
    