<svg width="37" height="42" viewBox="0 0 37 42" fill="none" xmlns="http://www.w3.org/2000/svg">
    <path
        d="M35.36 41C35.36 33.26 27.66 27 18.18 27C8.7 27 1 33.26 1 41M18.18 21C20.8322 21 23.3757 19.9464 25.2511 18.0711C27.1264 16.1957 28.18 13.6522 28.18 11C28.18 8.34784 27.1264 5.8043 25.2511 3.92893C23.3757 2.05357 20.8322 1 18.18 1C15.5278 1 12.9843 2.05357 11.1089 3.92893C9.23357 5.8043 8.18 8.34784 8.18 11C8.18 13.6522 9.23357 16.1957 11.1089 18.0711C12.9843 19.9464 15.5278 21 18.18 21Z"
        stroke="#D4A413" stroke-width="1.5" stroke-linecap="round" stroke-linejoin="round" />
</svg>
    