<svg width="50" height="50" viewBox="0 0 50 50" fill="none" xmlns="http://www.w3.org/2000/svg">
    <path
        d="M22.6033 44.1926C28.3328 44.1926 33.8277 41.9173 37.8791 37.8672C41.9305 33.8171 44.2065 28.324 44.2065 22.5963C44.2065 16.8686 41.9305 11.3755 37.8791 7.3254C33.8277 3.27532 28.3328 1 22.6033 1C16.8737 1 11.3788 3.27532 7.32745 7.3254C3.27605 11.3755 1 16.8686 1 22.5963C1 28.324 3.27605 33.8171 7.32745 37.8672C11.3788 41.9173 16.8737 44.1926 22.6033 44.1926ZM41.6381 45.8483C42.9103 49.6876 45.8148 50.0716 48.0471 46.7121C50.0874 43.6407 48.7432 41.1211 45.0467 41.1211C42.3102 41.0971 40.774 43.2327 41.6381 45.8483Z"
        stroke="#D4A413" stroke-width="1.5" stroke-linecap="round" stroke-linejoin="round" />
</svg>
    