<svg width="670" height="670" viewBox="0 0 670 670" fill="none" xmlns="http://www.w3.org/2000/svg">
    <rect x="141.305" y="357.491" width="124.398" height="124.398"
        transform="rotate(-25.2781 141.305 357.491)" stroke="#D4A413" />
    <rect x="89.0325" y="246.741" width="124.398" height="124.398"
        transform="rotate(-25.2781 89.0325 246.741)" stroke="#D4A413" />
    <rect x="193.621" y="468.22" width="124.398" height="124.398"
        transform="rotate(-25.2781 193.621 468.22)" stroke="#D4A413" />
    <rect x="252.066" y="305.186" width="124.398" height="124.398"
        transform="rotate(-25.2781 252.066 305.186)" stroke="#D4A413" />
    <rect x="199.794" y="194.436" width="124.398" height="124.398"
        transform="rotate(-25.2781 199.794 194.436)" stroke="#D4A413" />
    <rect x="363.042" y="252.994" width="124.398" height="124.398"
        transform="rotate(-25.2781 363.042 252.994)" stroke="#D4A413" />
    <rect x="310.769" y="142.245" width="124.398" height="124.398"
        transform="rotate(-25.2781 310.769 142.245)" stroke="#D4A413" />
    <rect x="304.383" y="415.915" width="124.398" height="124.398"
        transform="rotate(-25.2781 304.383 415.915)" stroke="#D4A413" />
    <rect x="415.359" y="363.723" width="124.398" height="124.398"
        transform="rotate(-25.2781 415.359 363.723)" stroke="#D4A413" />
</svg>
    